<mxfile host="app.diagrams.net" modified="2020-11-04T11:54:12.964Z" agent="5.0 (Windows NT 10.0; Win64; x64) AppleWebKit/537.36 (KHTML, like Gecko) Chrome/86.0.4240.111 Safari/537.36" etag="YGjBYRdrK7gNzUOfGql3" version="13.8.9-1" type="github">
  <diagram id="NUG3y181ZtG_v5kROlvv" name="Page-1">
    <mxGraphModel dx="868" dy="450" grid="1" gridSize="10" guides="1" tooltips="1" connect="1" arrows="1" fold="1" page="1" pageScale="1" pageWidth="850" pageHeight="1100" math="0" shadow="0">
      <root>
        <mxCell id="0" />
        <mxCell id="1" parent="0" />
        <mxCell id="T3QdBfFjQZKfzfxc6UGc-1" value="" style="rounded=1;whiteSpace=wrap;html=1;arcSize=3;fillColor=#f5f5f5;strokeColor=#666666;fontColor=#333333;" vertex="1" parent="1">
          <mxGeometry x="80" y="40" width="710" height="440" as="geometry" />
        </mxCell>
        <mxCell id="T3QdBfFjQZKfzfxc6UGc-4" value="&lt;font size=&quot;1&quot;&gt;&lt;b style=&quot;font-size: 19px&quot;&gt;Covid 19 Tracker&lt;/b&gt;&lt;/font&gt;" style="rounded=0;whiteSpace=wrap;html=1;fillColor=#f5f5f5;fontColor=#333333;strokeColor=none;" vertex="1" parent="1">
          <mxGeometry x="107" y="50" width="170" height="30" as="geometry" />
        </mxCell>
        <mxCell id="T3QdBfFjQZKfzfxc6UGc-5" value="Worldwide" style="rounded=0;whiteSpace=wrap;html=1;" vertex="1" parent="1">
          <mxGeometry x="370" y="50" width="170" height="30" as="geometry" />
        </mxCell>
        <mxCell id="T3QdBfFjQZKfzfxc6UGc-11" value="" style="group" vertex="1" connectable="0" parent="1">
          <mxGeometry x="90" y="90" width="130" height="80" as="geometry" />
        </mxCell>
        <mxCell id="T3QdBfFjQZKfzfxc6UGc-6" value="" style="rounded=1;whiteSpace=wrap;html=1;" vertex="1" parent="T3QdBfFjQZKfzfxc6UGc-11">
          <mxGeometry width="130" height="80" as="geometry" />
        </mxCell>
        <mxCell id="T3QdBfFjQZKfzfxc6UGc-7" value="Coronavirus Cases" style="rounded=1;whiteSpace=wrap;html=1;strokeColor=none;" vertex="1" parent="T3QdBfFjQZKfzfxc6UGc-11">
          <mxGeometry x="5" y="7" width="110" height="20" as="geometry" />
        </mxCell>
        <mxCell id="T3QdBfFjQZKfzfxc6UGc-8" value="1.2 M Total" style="rounded=1;whiteSpace=wrap;html=1;align=left;strokeColor=none;" vertex="1" parent="T3QdBfFjQZKfzfxc6UGc-11">
          <mxGeometry x="5" y="45" width="110" height="20" as="geometry" />
        </mxCell>
        <mxCell id="T3QdBfFjQZKfzfxc6UGc-10" value="+2,000" style="rounded=1;whiteSpace=wrap;html=1;align=left;strokeColor=none;" vertex="1" parent="T3QdBfFjQZKfzfxc6UGc-11">
          <mxGeometry x="5" y="25" width="110" height="20" as="geometry" />
        </mxCell>
        <mxCell id="T3QdBfFjQZKfzfxc6UGc-12" value="" style="group" vertex="1" connectable="0" parent="1">
          <mxGeometry x="250" y="90" width="130" height="80" as="geometry" />
        </mxCell>
        <mxCell id="T3QdBfFjQZKfzfxc6UGc-13" value="" style="rounded=1;whiteSpace=wrap;html=1;" vertex="1" parent="T3QdBfFjQZKfzfxc6UGc-12">
          <mxGeometry width="130" height="80" as="geometry" />
        </mxCell>
        <mxCell id="T3QdBfFjQZKfzfxc6UGc-14" value="Recovered" style="rounded=1;whiteSpace=wrap;html=1;strokeColor=none;align=left;" vertex="1" parent="T3QdBfFjQZKfzfxc6UGc-12">
          <mxGeometry x="5" y="7" width="110" height="20" as="geometry" />
        </mxCell>
        <mxCell id="T3QdBfFjQZKfzfxc6UGc-15" value="1.2 M Total" style="rounded=1;whiteSpace=wrap;html=1;align=left;strokeColor=none;" vertex="1" parent="T3QdBfFjQZKfzfxc6UGc-12">
          <mxGeometry x="5" y="45" width="110" height="20" as="geometry" />
        </mxCell>
        <mxCell id="T3QdBfFjQZKfzfxc6UGc-16" value="+2,000" style="rounded=1;whiteSpace=wrap;html=1;align=left;strokeColor=none;" vertex="1" parent="T3QdBfFjQZKfzfxc6UGc-12">
          <mxGeometry x="5" y="25" width="110" height="20" as="geometry" />
        </mxCell>
        <mxCell id="T3QdBfFjQZKfzfxc6UGc-17" value="" style="group" vertex="1" connectable="0" parent="1">
          <mxGeometry x="410" y="90" width="130" height="80" as="geometry" />
        </mxCell>
        <mxCell id="T3QdBfFjQZKfzfxc6UGc-18" value="" style="rounded=1;whiteSpace=wrap;html=1;" vertex="1" parent="T3QdBfFjQZKfzfxc6UGc-17">
          <mxGeometry width="130" height="80" as="geometry" />
        </mxCell>
        <mxCell id="T3QdBfFjQZKfzfxc6UGc-19" value="Deaths" style="rounded=1;whiteSpace=wrap;html=1;strokeColor=none;align=left;" vertex="1" parent="T3QdBfFjQZKfzfxc6UGc-17">
          <mxGeometry x="5" y="7" width="110" height="20" as="geometry" />
        </mxCell>
        <mxCell id="T3QdBfFjQZKfzfxc6UGc-20" value="1.2 M Total" style="rounded=1;whiteSpace=wrap;html=1;align=left;strokeColor=none;" vertex="1" parent="T3QdBfFjQZKfzfxc6UGc-17">
          <mxGeometry x="5" y="45" width="110" height="20" as="geometry" />
        </mxCell>
        <mxCell id="T3QdBfFjQZKfzfxc6UGc-21" value="+2,000" style="rounded=1;whiteSpace=wrap;html=1;align=left;strokeColor=none;" vertex="1" parent="T3QdBfFjQZKfzfxc6UGc-17">
          <mxGeometry x="5" y="25" width="110" height="20" as="geometry" />
        </mxCell>
        <mxCell id="T3QdBfFjQZKfzfxc6UGc-22" value="" style="rounded=1;whiteSpace=wrap;html=1;arcSize=4;" vertex="1" parent="1">
          <mxGeometry x="90" y="190" width="450" height="230" as="geometry" />
        </mxCell>
        <mxCell id="T3QdBfFjQZKfzfxc6UGc-23" value="" style="shape=image;html=1;verticalAlign=top;verticalLabelPosition=bottom;labelBackgroundColor=#ffffff;imageAspect=0;aspect=fixed;image=https://cdn2.iconfinder.com/data/icons/social-media-2259/512/google-128.png" vertex="1" parent="1">
          <mxGeometry x="230" y="210" width="128" height="128" as="geometry" />
        </mxCell>
        <mxCell id="T3QdBfFjQZKfzfxc6UGc-24" value="" style="rounded=1;whiteSpace=wrap;html=1;arcSize=6;" vertex="1" parent="1">
          <mxGeometry x="550" y="50" width="210" height="370" as="geometry" />
        </mxCell>
        <mxCell id="T3QdBfFjQZKfzfxc6UGc-25" value="Cases by Country" style="rounded=1;whiteSpace=wrap;html=1;align=left;strokeColor=none;" vertex="1" parent="1">
          <mxGeometry x="570" y="60" width="120" height="30" as="geometry" />
        </mxCell>
        <mxCell id="T3QdBfFjQZKfzfxc6UGc-26" value="Worldwide New Cases" style="rounded=1;whiteSpace=wrap;html=1;align=left;strokeColor=none;" vertex="1" parent="1">
          <mxGeometry x="565" y="250" width="140" height="30" as="geometry" />
        </mxCell>
        <mxCell id="T3QdBfFjQZKfzfxc6UGc-27" value="" style="fillColor=#10739E;strokeColor=none;" vertex="1" parent="1">
          <mxGeometry x="570" y="310" width="30" height="100" as="geometry" />
        </mxCell>
        <mxCell id="T3QdBfFjQZKfzfxc6UGc-28" value="" style="shape=mxgraph.arrows2.arrow;dy=0.4;dx=16;notch=0;direction=north;fillColor=#1699D3;strokeColor=none;" vertex="1" parent="T3QdBfFjQZKfzfxc6UGc-27">
          <mxGeometry x="3" y="30" width="24" height="70" as="geometry" />
        </mxCell>
        <mxCell id="T3QdBfFjQZKfzfxc6UGc-29" value="Label" style="text;html=1;align=center;verticalAlign=middle;whiteSpace=wrap;fontColor=#FFFFFF;fontSize=10;" vertex="1" parent="T3QdBfFjQZKfzfxc6UGc-27">
          <mxGeometry width="30" height="20" as="geometry" />
        </mxCell>
        <mxCell id="T3QdBfFjQZKfzfxc6UGc-30" value="" style="fillColor=#F2931E;strokeColor=none;" vertex="1" parent="1">
          <mxGeometry x="605" y="290" width="30" height="120" as="geometry" />
        </mxCell>
        <mxCell id="T3QdBfFjQZKfzfxc6UGc-31" value="" style="shape=mxgraph.arrows2.arrow;dy=0.4;dx=16;notch=0;direction=south;fillColor=#F5AB50;strokeColor=none;" vertex="1" parent="T3QdBfFjQZKfzfxc6UGc-30">
          <mxGeometry x="3" width="24" height="80" as="geometry" />
        </mxCell>
        <mxCell id="T3QdBfFjQZKfzfxc6UGc-32" value="Label" style="text;html=1;align=center;verticalAlign=middle;whiteSpace=wrap;fontColor=#FFFFFF;fontSize=10;" vertex="1" parent="T3QdBfFjQZKfzfxc6UGc-30">
          <mxGeometry width="30" height="20" as="geometry" />
        </mxCell>
        <mxCell id="T3QdBfFjQZKfzfxc6UGc-33" value="" style="fillColor=#AE4132;strokeColor=none;" vertex="1" parent="1">
          <mxGeometry x="640" y="280" width="30" height="130" as="geometry" />
        </mxCell>
        <mxCell id="T3QdBfFjQZKfzfxc6UGc-34" value="" style="shape=mxgraph.arrows2.arrow;dy=0.4;dx=16;notch=0;direction=north;fillColor=#E85642;strokeColor=none;" vertex="1" parent="T3QdBfFjQZKfzfxc6UGc-33">
          <mxGeometry x="3" y="80" width="24" height="50" as="geometry" />
        </mxCell>
        <mxCell id="T3QdBfFjQZKfzfxc6UGc-35" value="Label" style="text;html=1;align=center;verticalAlign=middle;whiteSpace=wrap;fontColor=#FFFFFF;fontSize=10;" vertex="1" parent="T3QdBfFjQZKfzfxc6UGc-33">
          <mxGeometry width="30" height="20" as="geometry" />
        </mxCell>
        <mxCell id="T3QdBfFjQZKfzfxc6UGc-36" value="" style="fillColor=#12AAB5;strokeColor=none;" vertex="1" parent="1">
          <mxGeometry x="675" y="330" width="30" height="80" as="geometry" />
        </mxCell>
        <mxCell id="T3QdBfFjQZKfzfxc6UGc-37" value="" style="shape=mxgraph.arrows2.arrow;dy=0.4;dx=16;notch=0;direction=south;fillColor=#64BBE2;strokeColor=none;" vertex="1" parent="T3QdBfFjQZKfzfxc6UGc-36">
          <mxGeometry x="3" width="24" height="30" as="geometry" />
        </mxCell>
        <mxCell id="T3QdBfFjQZKfzfxc6UGc-38" value="Label" style="text;html=1;align=center;verticalAlign=middle;whiteSpace=wrap;fontColor=#FFFFFF;fontSize=10;" vertex="1" parent="T3QdBfFjQZKfzfxc6UGc-36">
          <mxGeometry width="30" height="20" as="geometry" />
        </mxCell>
        <mxCell id="T3QdBfFjQZKfzfxc6UGc-39" value="" style="fillColor=#23445D;strokeColor=none;" vertex="1" parent="1">
          <mxGeometry x="710" y="340" width="30" height="70" as="geometry" />
        </mxCell>
        <mxCell id="T3QdBfFjQZKfzfxc6UGc-40" value="" style="shape=mxgraph.arrows2.arrow;dy=0.4;dx=16;notch=0;direction=north;fillColor=#2F5B7C;strokeColor=none;" vertex="1" parent="T3QdBfFjQZKfzfxc6UGc-39">
          <mxGeometry x="3" y="10" width="24" height="60" as="geometry" />
        </mxCell>
        <mxCell id="T3QdBfFjQZKfzfxc6UGc-41" value="Label" style="text;html=1;align=center;verticalAlign=middle;whiteSpace=wrap;fontColor=#FFFFFF;fontSize=10;" vertex="1" parent="T3QdBfFjQZKfzfxc6UGc-39">
          <mxGeometry width="30" height="20" as="geometry" />
        </mxCell>
        <mxCell id="T3QdBfFjQZKfzfxc6UGc-42" value="Table" style="shape=table;html=1;whiteSpace=wrap;startSize=30;container=1;collapsible=0;childLayout=tableLayout;fontStyle=1;align=center;" vertex="1" parent="1">
          <mxGeometry x="565" y="90" width="180" height="150" as="geometry" />
        </mxCell>
        <mxCell id="T3QdBfFjQZKfzfxc6UGc-43" value="" style="shape=partialRectangle;html=1;whiteSpace=wrap;collapsible=0;dropTarget=0;pointerEvents=0;fillColor=none;top=0;left=0;bottom=0;right=0;points=[[0,0.5],[1,0.5]];portConstraint=eastwest;" vertex="1" parent="T3QdBfFjQZKfzfxc6UGc-42">
          <mxGeometry y="30" width="180" height="35" as="geometry" />
        </mxCell>
        <mxCell id="T3QdBfFjQZKfzfxc6UGc-44" value="" style="shape=partialRectangle;html=1;whiteSpace=wrap;connectable=0;fillColor=none;top=0;left=0;bottom=0;right=0;overflow=hidden;" vertex="1" parent="T3QdBfFjQZKfzfxc6UGc-43">
          <mxGeometry width="60" height="35" as="geometry" />
        </mxCell>
        <mxCell id="T3QdBfFjQZKfzfxc6UGc-45" value="" style="shape=partialRectangle;html=1;whiteSpace=wrap;connectable=0;fillColor=none;top=0;left=0;bottom=0;right=0;overflow=hidden;" vertex="1" parent="T3QdBfFjQZKfzfxc6UGc-43">
          <mxGeometry x="60" width="60" height="35" as="geometry" />
        </mxCell>
        <mxCell id="T3QdBfFjQZKfzfxc6UGc-46" value="" style="shape=partialRectangle;html=1;whiteSpace=wrap;connectable=0;fillColor=none;top=0;left=0;bottom=0;right=0;overflow=hidden;" vertex="1" parent="T3QdBfFjQZKfzfxc6UGc-43">
          <mxGeometry x="120" width="60" height="35" as="geometry" />
        </mxCell>
        <mxCell id="T3QdBfFjQZKfzfxc6UGc-47" value="" style="shape=partialRectangle;html=1;whiteSpace=wrap;collapsible=0;dropTarget=0;pointerEvents=0;fillColor=none;top=0;left=0;bottom=0;right=0;points=[[0,0.5],[1,0.5]];portConstraint=eastwest;" vertex="1" parent="T3QdBfFjQZKfzfxc6UGc-42">
          <mxGeometry y="65" width="180" height="43" as="geometry" />
        </mxCell>
        <mxCell id="T3QdBfFjQZKfzfxc6UGc-48" value="" style="shape=partialRectangle;html=1;whiteSpace=wrap;connectable=0;fillColor=none;top=0;left=0;bottom=0;right=0;overflow=hidden;" vertex="1" parent="T3QdBfFjQZKfzfxc6UGc-47">
          <mxGeometry width="60" height="43" as="geometry" />
        </mxCell>
        <mxCell id="T3QdBfFjQZKfzfxc6UGc-49" value="" style="shape=partialRectangle;html=1;whiteSpace=wrap;connectable=0;fillColor=none;top=0;left=0;bottom=0;right=0;overflow=hidden;" vertex="1" parent="T3QdBfFjQZKfzfxc6UGc-47">
          <mxGeometry x="60" width="60" height="43" as="geometry" />
        </mxCell>
        <mxCell id="T3QdBfFjQZKfzfxc6UGc-50" value="" style="shape=partialRectangle;html=1;whiteSpace=wrap;connectable=0;fillColor=none;top=0;left=0;bottom=0;right=0;overflow=hidden;" vertex="1" parent="T3QdBfFjQZKfzfxc6UGc-47">
          <mxGeometry x="120" width="60" height="43" as="geometry" />
        </mxCell>
        <mxCell id="T3QdBfFjQZKfzfxc6UGc-51" value="" style="shape=partialRectangle;html=1;whiteSpace=wrap;collapsible=0;dropTarget=0;pointerEvents=0;fillColor=none;top=0;left=0;bottom=0;right=0;points=[[0,0.5],[1,0.5]];portConstraint=eastwest;" vertex="1" parent="T3QdBfFjQZKfzfxc6UGc-42">
          <mxGeometry y="108" width="180" height="42" as="geometry" />
        </mxCell>
        <mxCell id="T3QdBfFjQZKfzfxc6UGc-52" value="" style="shape=partialRectangle;html=1;whiteSpace=wrap;connectable=0;fillColor=none;top=0;left=0;bottom=0;right=0;overflow=hidden;" vertex="1" parent="T3QdBfFjQZKfzfxc6UGc-51">
          <mxGeometry width="60" height="42" as="geometry" />
        </mxCell>
        <mxCell id="T3QdBfFjQZKfzfxc6UGc-53" value="" style="shape=partialRectangle;html=1;whiteSpace=wrap;connectable=0;fillColor=none;top=0;left=0;bottom=0;right=0;overflow=hidden;" vertex="1" parent="T3QdBfFjQZKfzfxc6UGc-51">
          <mxGeometry x="60" width="60" height="42" as="geometry" />
        </mxCell>
        <mxCell id="T3QdBfFjQZKfzfxc6UGc-54" value="" style="shape=partialRectangle;html=1;whiteSpace=wrap;connectable=0;fillColor=none;top=0;left=0;bottom=0;right=0;overflow=hidden;" vertex="1" parent="T3QdBfFjQZKfzfxc6UGc-51">
          <mxGeometry x="120" width="60" height="42" as="geometry" />
        </mxCell>
      </root>
    </mxGraphModel>
  </diagram>
</mxfile>
